<svg id="Capa_1" enable-background="new 0 0 512 512" height="512" viewBox="0 0 512 512" width="512" xmlns="http://www.w3.org/2000/svg"><g><path d="m15 30h49.121c.235 1.557-2.438-16.129 18.441 122h84.435c8.291 0 15 6.709 15 15s-6.709 15-15 15h-79.806l9.258 60h70.549c8.291 0 15 6.709 15 15s-6.709 15-15 15h-65.92c.016.101 21.071 137.11 21.096 137.271 1.113 7.324 7.412 12.729 14.824 12.729h300c8.291 0 15-6.709 15-15s-6.709-15-15-15h-287.125l-9.201-60h273.825c19.629 0 37.368-13.389 43.228-32.783l7.771-27.217h-58.499c-8.291 0-15-6.709-15-15s6.709-15 15-15h67.062l17.13-60h-84.192c-8.291 0-15-6.709-15-15s6.709-15 15-15h92.758l11.671-40.884c1.289-4.526.381-9.39-2.461-13.154-2.827-3.75-7.266-5.962-11.968-5.962h-393.329l-11.847-79.271c-1.113-7.324-7.412-12.729-14.824-12.729h-61.997c-8.291 0-15 6.709-15 15s6.709 15 15 15zm301.997 242c-8.284 0-15-6.716-15-15 0-8.286 6.716-15 15-15s15 6.714 15 15c0 8.284-6.716 15-15 15zm8.321-117.48c6.899 4.6 8.76 13.901 4.16 20.801l-60 90c-4.522 6.794-13.785 8.81-20.801 4.16-6.899-4.6-8.76-13.901-4.16-20.801l60-90c4.585-6.914 13.843-8.745 20.801-4.16zm-68.321-2.52c8.284 0 15 6.714 15 15 0 8.284-6.716 15-15 15s-15-6.716-15-15c0-8.286 6.717-15 15-15z"/><path d="m121.997 467c0 24.814 20.186 45 45 45s45-20.186 45-45-20.186-45-45-45-45 20.186-45 45zm45-15c8.276 0 15 6.724 15 15s-6.724 15-15 15-15-6.724-15-15 6.724-15 15-15z"/><path d="m361.997 467c0 24.814 20.186 45 45 45s45-20.186 45-45-20.186-45-45-45-45 20.186-45 45zm45-15c8.276 0 15 6.724 15 15s-6.724 15-15 15-15-6.724-15-15 6.724-15 15-15z"/></g></svg>